<?xml version="1.0" standalone="no"?><!DOCTYPE svg PUBLIC "-//W3C//DTD SVG 1.1//EN"
    "http://www.w3.org/Graphics/SVG/1.1/DTD/svg11.dtd">
<svg t="1719973461565" class="icon" viewBox="0 0 1024 1024" version="1.1" xmlns="http://www.w3.org/2000/svg" p-id="9422"
     width="200" height="200">
    <path
        d="M95.8 213.56666667H64v578.5c0 38.4 31.4 65.7 69.9 65.7H453l22.2-32.4L95.8 764.66666667V213.56666667z m300.6-54.8l-254.9-35.2 0.3 619.4C249.2 734.56666667 490 778.66666667 490 797.16666667v-528c0-52.7-42-103.2-93.6-110.4z m485.8 584.2l0.3-619.4-254.9 35.2C576 165.96666667 534 216.46666667 534 269.16666667v528c0-18.5 240.8-62.6 348.2-54.2z m46-529.4V764.66666667l-379.4 60.7 22.2 32.4h319.2c38.4 0 69.9-27.2 69.9-65.7V213.56666667h-31.9z"
        fill="#1296db" p-id="9423"></path>
</svg>